<?xml version="1.0" encoding="UTF-8"?>
<!DOCTYPE svg PUBLIC "-//W3C//DTD SVG 1.1//EN" "http://www.w3.org/Graphics/SVG/1.1/DTD/svg11.dtd">
<svg xmlns="http://www.w3.org/2000/svg" version="1.1" width="512px" height="512px" style="shape-rendering:geometricPrecision; text-rendering:geometricPrecision; image-rendering:optimizeQuality; fill-rule:evenodd; clip-rule:evenodd" xmlns:xlink="http://www.w3.org/1999/xlink">
<g><path style="opacity:0.999" fill="#000000" d="M 40.5,-0.5 C 183.833,-0.5 327.167,-0.5 470.5,-0.5C 491.833,5.5 505.5,19.1667 511.5,40.5C 511.5,183.833 511.5,327.167 511.5,470.5C 505.5,491.833 491.833,505.5 470.5,511.5C 327.167,511.5 183.833,511.5 40.5,511.5C 19.1667,505.5 5.5,491.833 -0.5,470.5C -0.5,327.167 -0.5,183.833 -0.5,40.5C 5.5,19.1667 19.1667,5.5 40.5,-0.5 Z"/></g>
<g><path style="opacity:1" fill="#8c8c8c" d="M 158.5,151.5 C 158.5,220.833 158.5,290.167 158.5,359.5C 168.167,359.5 177.833,359.5 187.5,359.5C 177.681,360.494 167.681,360.827 157.5,360.5C 157.167,290.665 157.501,220.998 158.5,151.5 Z"/></g>
<g><path style="opacity:1" fill="#fefefe" d="M 158.5,151.5 C 168.167,151.5 177.833,151.5 187.5,151.5C 187.5,220.833 187.5,290.167 187.5,359.5C 177.833,359.5 168.167,359.5 158.5,359.5C 158.5,290.167 158.5,220.833 158.5,151.5 Z"/></g>
<g><path style="opacity:1" fill="#fcfcfc" d="M 215.5,331.5 C 215.5,322.5 215.5,313.5 215.5,304.5C 225.167,304.5 234.833,304.5 244.5,304.5C 244.178,310.358 244.511,316.025 245.5,321.5C 249.298,324.796 252.964,328.296 256.5,332C 275.167,332.667 293.833,332.667 312.5,332C 316,328.5 319.5,325 323,321.5C 323.667,308.167 323.667,294.833 323,281.5C 319.833,278.333 316.667,275.167 313.5,272C 293.836,271.5 274.169,271.333 254.5,271.5C 254.5,262.167 254.5,252.833 254.5,243.5C 274.169,243.667 293.836,243.5 313.5,243C 316.667,239.833 319.833,236.667 323,233.5C 323.667,220.167 323.667,206.833 323,193.5C 319.833,190.333 316.667,187.167 313.5,184C 294.833,183.333 276.167,183.333 257.5,184C 254,187.5 250.5,191 247,194.5C 246.501,200.157 246.334,205.824 246.5,211.5C 236.5,211.5 226.5,211.5 216.5,211.5C 216.334,202.161 216.5,192.827 217,183.5C 226.167,174.333 235.333,165.167 244.5,156C 271.833,155.333 299.167,155.333 326.5,156C 335.333,164.833 344.167,173.667 353,182.5C 353.667,202.833 353.667,223.167 353,243.5C 347.866,247.633 343.032,252.133 338.5,257C 343.333,261.833 348.167,266.667 353,271.5C 353.667,291.833 353.667,312.167 353,332.5C 343.833,341.667 334.667,350.833 325.5,360C 298.167,360.667 270.833,360.667 243.5,360C 233.964,350.632 224.631,341.132 215.5,331.5 Z"/></g>
<g><path style="opacity:1" fill="#959595" d="M 245.5,321.5 C 244.511,316.025 244.178,310.358 244.5,304.5C 234.833,304.5 225.167,304.5 215.5,304.5C 215.5,313.5 215.5,322.5 215.5,331.5C 214.506,322.348 214.173,313.015 214.5,303.5C 224.833,303.5 235.167,303.5 245.5,303.5C 245.5,309.5 245.5,315.5 245.5,321.5 Z"/></g>
</svg>
